<?xml version="1.0" standalone="no"?>
<!-- Generator: Adobe Fireworks 10, Export SVG Extension by Aaron Beall (http://fireworks.abeall.com) . Version: 0.6.1  -->
<!DOCTYPE svg PUBLIC "-//W3C//DTD SVG 1.1//EN" "http://www.w3.org/Graphics/SVG/1.1/DTD/svg11.dtd">
<svg id="Untitled-Page%201" viewBox="0 0 11 12" style="background-color:#ffffff00" version="1.1"
	xmlns="http://www.w3.org/2000/svg" xmlns:xlink="http://www.w3.org/1999/xlink" xml:space="preserve"
	x="0px" y="0px" width="11px" height="12px"
>
	<g id="Layer%201">
		<path id="Forma%201" d="M 10.4998 3.513 L 9.6099 3.513 L 8.9153 11.6068 C 8.8962 11.8292 8.7144 11.9998 8.4966 11.9998 L 2.4885 11.9998 C 2.2708 11.9998 2.0889 11.8293 2.0701 11.6069 L 1.3752 3.513 L 0.4995 3.513 L 0.4995 2.6513 L 3.4268 2.6513 L 3.4268 1.7179 C 3.4268 1.322 3.741 0.9999 4.1272 0.9999 L 6.8721 0.9999 C 7.2583 0.9999 7.5725 1.322 7.5725 1.7179 L 7.5725 2.6513 L 10.4998 2.6513 L 10.4998 3.513 ZM 6.7322 1.8615 L 4.2668 1.8615 L 4.2668 2.6513 L 6.7322 2.6513 L 6.7322 1.8615 ZM 2.2188 3.513 L 2.873 11.1383 L 8.1121 11.1383 L 8.7661 3.513 L 2.2188 3.513 ZM 6.5222 9.8588 L 6.7043 4.7609 L 7.5442 4.7924 L 7.3621 9.8902 L 6.5222 9.8588 ZM 5.0796 4.7767 L 5.9199 4.7767 L 5.9199 9.8746 L 5.0796 9.8746 L 5.0796 4.7767 ZM 3.4551 4.7923 L 4.2949 4.7608 L 4.4771 9.8586 L 3.6372 9.8902 L 3.4551 4.7923 Z" fill="#454545"/>
	</g>
</svg>